# ProBuilder 5.0.6
# https://unity3d.com/unity/features/worldbuilding/probuilder
# 3/15/2023 2:38:07 PM

mtllib ./Room.mtl
o Room

g Cube
v 13.12304 5.75 -0.6896138
v 8.624607 5.75 -0.6896138
v 8.624607 5.75 11.68961
v 13.12304 5.75 11.68961
v 15 -2 13
v 9 -2 13
v 9 -2 -2
v 15 -2 -2
v 14.95342 1.5 13
v 14.95342 3.25 13
v 9 3.25 13
v 9 1.5 13
v 15 5 13
v 9 5 13
v 9 1.5 15
v 9 3.25 15
v 6 3.25 15
v 6 1.5 15
v 6 5 13
v 6 3.25 13
v 0 5 13
v 0 3.25 13
v 0 1.5 13
v 6 1.5 13
v 9 -0.25 13
v 6 -0.25 13
v 6 -2 13
v 9 -0.25 15
v 6 -0.25 15
v 0 -0.25 13
v 0 -2 13
v 15 -0.25 13
v 0 3.25 -2
v 0 1.5 -2
v 0 5 -2
v 0 -0.25 -2
v 0 -2 -2
v 9 1.5 -2
v 6 1.5 -2
v 6 3.25 -2
v 9 3.25 -2
v 6 5 -2
v 9 5 -2
v 14.95342 1.5 -2
v 14.95342 3.25 -2
v 15 5 -2
v 9 -0.25 -2
v 15 -0.25 -2
v 9 -2 -3
v 6 -2 -3
v 6 -0.25 -3
v 9 -0.25 -3
v 6 -2 -2
v 6 -0.25 -2
v 6 1.5 -3
v 9 1.5 -3
v 1.876964 5.75 -0.6896138
v 1.876964 5.75 11.68961
v 6.375393 5.75 11.68961
v 6.375393 5.75 -0.6896138
v 1.876964 5 -2
v 1.876964 5 13
v 6.375393 5 13
v 8.624607 5 13
v 6.375393 5 -2
v 13.12304 5 13
v 8.624607 5 -2
v 13.12304 5 -2
v 1.876964 5 -0.6896138
v 1.876964 5 11.68961
v 6.375393 5 11.68961
v 8.624607 5 11.68961
v 6.375393 5 -0.6896138
v 13.12304 5 11.68961
v 8.624607 5 -0.6896138
v 13.12304 5 -0.6896138

vt 0.333096 0.2256113
vt 0.2171208 0.2256113
vt 0.2171208 0.5447632
vt 0.333096 0.5447632
vt 0.02892779 0.9792914
vt 0.1836153 0.9792914
vt 0.1836153 0.5925726
vt 0.02892779 0.5925726
vt 0.4594259 0.6611648
vt 0.4594259 0.7122065
vt 0.6330674 0.7122065
vt 0.6330674 0.6611648
vt 0.4580674 0.7632481
vt 0.6330674 0.7632481
vt 0.2770008 0.1293562
vt 0.2770008 0.1876895
vt 0.3770007 0.1876895
vt 0.3770007 0.1293562
vt 0.7205673 0.7632481
vt 0.7205673 0.7122065
vt 0.8955674 0.7632481
vt 0.8955674 0.7122065
vt 0.8955674 0.6611648
vt 0.7205673 0.6611648
vt 0.2770008 0.01268947
vt 0.2770008 0.0710228
vt 0.3770007 0.0710228
vt 0.3770007 0.01268947
vt 0.8955674 0.6101232
vt 0.7205673 0.6101232
vt 0.8955674 0.5590814
vt 0.7205673 0.5590814
vt 0.4580674 0.5590814
vt 0.4580674 0.6101232
vt 0.6330674 0.6101232
vt 0.6330674 0.5590814
vt 0.451325 0.8837349
vt 0.451325 0.9361438
vt 0.9005437 0.9361438
vt 0.9005437 0.8837349
vt 0.451325 0.9885526
vt 0.9005437 0.9885526
vt 0.451325 0.7789173
vt 0.451325 0.8313261
vt 0.9005437 0.8313261
vt 0.9005437 0.7789173
vt 0.2646576 0.06389499
vt 0.1646575 0.06389499
vt 0.1646575 0.1222283
vt 0.2646576 0.1222283
vt 0.6055327 0.383672
vt 0.4539702 0.383672
vt 0.4539702 0.4278778
vt 0.6055327 0.4278778
vt 0.4539702 0.4720834
vt 0.6055327 0.4720834
vt 0.6813139 0.4720836
vt 0.6813139 0.427878
vt 0.8316996 0.3836722
vt 0.6813138 0.3836722
vt 0.8316996 0.427878
vt 0.8328761 0.4720836
vt 0.8328761 0.2952608
vt 0.6813138 0.2952608
vt 0.6813138 0.3394664
vt 0.8328761 0.3394664
vt 0.2685325 0.1321896
vt 0.1685324 0.1321896
vt 0.1685324 0.190523
vt 0.2685325 0.190523
vt 0.6055327 0.2952607
vt 0.4539702 0.2952607
vt 0.4539702 0.3394664
vt 0.6055327 0.3394664
vt 0.2646576 0.005561665
vt 0.1646575 0.005561665
vt 0.8151479 0.1981595
vt 0.4840931 0.1981595
vt 0.4840931 0.2367824
vt 0.8151479 0.2367824
vt 0.4840931 0.2754192
vt 0.8151479 0.2754192
vt 0.8151478 0.1208997
vt 0.4840931 0.1208997
vt 0.4840931 0.1595227
vt 0.8151478 0.1595227
vt 0.04315822 0.2256113
vt 0.04315822 0.5447632
vt 0.1591334 0.5447632
vt 0.1591334 0.2256113
vt 0.4156465 0.5925726
vt 0.260959 0.5925726
vt 0.260959 0.9792914
vt 0.4156465 0.9792914
vt 0.8875358 0.1673524
vt 0.8875358 0.1090191
vt 0.8542025 0.1673524
vt 0.8542025 0.1090191
vt 0.8875358 0.4423525
vt 0.8875358 0.3840191
vt 0.8542025 0.4423525
vt 0.8542025 0.3840191
vt 0.8875358 0.009019166
vt 0.8542025 0.009019166
vt 0.8875358 0.3256857
vt 0.8875358 0.2256857
vt 0.8542025 0.3256857
vt 0.8542025 0.2256857
vt 0.3848623 0.0694847
vt 0.3848623 0.127818
vt 0.4515289 0.0694847
vt 0.4515289 0.127818
vt 0.3848623 0.2278179
vt 0.4515289 0.2278179
vt 0.3848623 0.2861512
vt 0.4515289 0.2861512
vt 0.3848623 0.3444845
vt 0.4515289 0.3444845
vt 0.3848623 0.01115136
vt 0.4515289 0.01115136
vt 0.7205673 0.5226234
vt 0.6622341 0.6101233
vt 0.6622341 0.5226234
vt 0.9221988 0.04079127
vt 0.9221988 0.5095413
vt 0.9808541 0.04079127
vt 0.9808541 0.5095413
vt 0.158473 0.158267
vt 0.09753549 0.158267
vt 0.1394101 0.158267
vt 0.09372291 0.158267
vt 0.06706673 0.158267
vt 0.07087933 0.158267
vt 0.09753549 0.005923249
vt 0.158473 0.005923249
vt 0.09372291 0.005923249
vt 0.1394101 0.005923249
vt 0.006129235 0.158267
vt 0.02519214 0.158267
vt 0.06706673 0.005923249
vt 0.07087933 0.005923249
vt 0.978237 0.9895713
vt 0.978237 0.5208213
vt 0.9195818 0.9895713
vt 0.9195818 0.5208213
vt 0.006129235 0.005923249
vt 0.02519214 0.005923249
vt 0.1394101 0.01923185
vt 0.1394101 0.1449583
vt 0.4699248 0.1015681
vt 0.6198727 0.1015681
vt 0.4699248 0.05788848
vt 0.6198727 0.05788848
vt 0.6948465 0.1015681
vt 0.6948465 0.05788848
vt 0.6197917 0.003874544
vt 0.4698441 0.003874544
vt 0.6197917 0.04755411
vt 0.4698441 0.04755411
vt 0.8447943 0.1015681
vt 0.8447943 0.05788848
vt 0.6947656 0.003874544
vt 0.6947656 0.04755411
vt 0.02519214 0.1449583
vt 0.02519214 0.01923185
vt 0.8447132 0.003874544
vt 0.8447132 0.04755411
vt 0.7612498 0.5120584
vt 0.6252477 0.5120584
vt 0.7612498 0.5202981
vt 0.6252477 0.5202981
vt 0.5758265 0.5120584
vt 0.5758265 0.5202981
vt 0.5511159 0.5120584
vt 0.5511159 0.5202981
vt 0.8106712 0.5120584
vt 0.8106712 0.5202981
vt 0.5016947 0.5120584
vt 0.5016947 0.5202981
vt 0.835382 0.5120584
vt 0.835382 0.5202981
vt 0.3656925 0.5120584
vt 0.3656925 0.5202981
vt 0.8848034 0.5120584
vt 0.8848034 0.5202981

vn 0 -1 0
vn 0 1 0
vn 0 0 -1
vn 1 0 0
vn 0 0 1
vn -1 0 0
vn -0.9996459 0.02660736 0
vn -0.9996459 -0.02660736 0
vn 0 0 0

usemtl DefaultHDMaterial
f 1/1/1 4/4/1 3/3/1 2/2/1
f 6/6/2 5/5/2 8/8/2 7/7/2
f 12/12/3 11/11/3 10/10/3 9/9/3
f 11/11/3 14/14/3 13/13/3 10/10/3
f 18/18/3 17/17/3 16/16/3 15/15/3
f 20/20/3 19/19/3 14/14/3 11/11/3
f 22/22/3 21/21/3 19/19/3 20/20/3
f 23/23/3 22/22/3 20/20/3 24/24/3
f 27/28/3 26/27/3 25/26/3 6/25/3
f 29/27/3 18/18/3 15/15/3 28/26/3
f 30/29/3 23/23/3 24/24/3 26/30/3
f 31/31/3 30/29/3 26/30/3 27/32/3
f 6/36/3 25/35/3 32/34/3 5/33/3
f 25/35/3 12/12/3 9/9/3 32/34/3
f 34/40/4 33/39/4 22/38/4 23/37/4
f 33/39/4 35/42/4 21/41/4 22/38/4
f 37/46/4 36/45/4 30/44/4 31/43/4
f 36/45/4 34/40/4 23/37/4 30/44/4
f 41/50/5 40/49/5 39/48/5 38/47/5
f 40/54/5 33/53/5 34/52/5 39/51/5
f 42/56/5 35/55/5 33/53/5 40/54/5
f 43/57/5 42/56/5 40/54/5 41/58/5
f 45/61/5 41/58/5 38/60/5 44/59/5
f 46/62/5 43/57/5 41/58/5 45/61/5
f 48/66/5 47/65/5 7/64/5 8/63/5
f 44/59/5 38/60/5 47/65/5 48/66/5
f 52/70/5 51/69/5 50/68/5 49/67/5
f 54/74/5 36/73/5 37/72/5 53/71/5
f 39/51/5 34/52/5 36/73/5 54/74/5
f 56/47/5 55/48/5 51/76/5 52/75/5
f 10/80/6 45/79/6 44/78/6 9/77/6
f 13/82/7 46/81/7 45/79/7 10/80/7
f 32/86/6 48/85/6 8/84/6 5/83/6
f 9/77/8 44/78/8 48/85/8 32/86/8
f 60/90/1 59/89/1 58/88/1 57/87/1
f 2/2/1 3/3/1 59/89/1 60/90/1
f 31/94/2 27/93/2 53/92/2 37/91/2
f 27/93/2 6/6/2 7/7/2 53/92/2
f 51/97/4 55/98/4 39/96/4 54/95/4
f 56/101/6 52/102/6 47/100/6 38/99/6
f 55/98/1 56/104/1 38/103/1 39/96/1
f 49/107/2 50/108/2 53/106/2 7/105/2
f 50/108/4 51/97/4 54/95/4 53/106/4
f 52/102/6 49/107/6 7/105/6 47/100/6
f 15/111/6 16/112/6 11/110/6 12/109/6
f 16/112/1 17/114/1 20/113/1 11/110/1
f 17/114/4 18/116/4 24/115/4 20/113/4
f 18/116/4 29/118/4 26/117/4 24/115/4
f 28/120/6 15/111/6 12/109/6 25/119/6
f 29/122/2 28/123/2 25/121/2 26/30/2
f 61/126/1 62/127/1 21/125/1 35/124/1
f 62/130/9 63/131/9 19/129/9 21/128/9
f 63/131/9 64/133/9 14/132/9 19/129/9
f 65/136/9 61/137/9 35/135/9 42/134/9
f 64/133/9 66/139/9 13/138/9 14/132/9
f 67/141/9 65/136/9 42/134/9 43/140/9
f 66/144/1 68/145/1 46/143/1 13/142/1
f 68/147/9 67/141/9 43/140/9 46/146/9
f 69/148/9 70/149/9 62/130/9 61/137/9
f 70/152/1 71/153/1 63/151/1 62/150/1
f 71/153/1 72/155/1 64/154/1 63/151/1
f 73/158/1 69/159/1 61/157/1 65/156/1
f 72/155/1 74/161/1 66/160/1 64/154/1
f 75/163/1 73/158/1 65/156/1 67/162/1
f 74/164/9 76/165/9 68/147/9 66/139/9
f 76/167/1 75/163/1 67/162/1 68/166/1
f 57/170/4 58/171/4 70/169/4 69/168/4
f 58/171/3 59/173/3 71/172/3 70/169/3
f 59/173/3 3/175/3 72/174/3 71/172/3
f 60/177/5 57/170/5 69/168/5 73/176/5
f 3/175/3 4/179/3 74/178/3 72/174/3
f 2/181/5 60/177/5 73/176/5 75/180/5
f 4/179/6 1/183/6 76/182/6 74/178/6
f 1/185/5 2/181/5 75/180/5 76/184/5

