# ProBuilder 5.0.6
# https://unity3d.com/unity/features/worldbuilding/probuilder
# 2023/3/16 14:33:03

mtllib ./TORCH.mtl
o TORCH

g Cylinder
v 8.923002 0.4793146 2.398845
v 8.923002 0.539 2.398845
v 8.933839 0.4793146 2.463785
v 8.933839 0.539 2.463785
v 8.965174 0.4793146 2.521688
v 8.965174 0.539 2.521688
v 9.013613 0.4793146 2.566279
v 9.013613 0.539 2.566279
v 9.073905 0.4793146 2.592726
v 9.073905 0.539 2.592726
v 9.139518 0.4793146 2.598162
v 9.139518 0.539 2.598162
v 9.203341 0.4793146 2.582
v 9.203341 0.539 2.582
v 9.258458 0.4793146 2.54599
v 9.258458 0.539 2.54599
v 9.298897 0.4793146 2.494035
v 9.298897 0.539 2.494035
v 9.320274 0.4793146 2.431764
v 9.320274 0.539 2.431764
v 9.320274 0.4793146 2.365927
v 9.320274 0.539 2.365927
v 9.298897 0.4793146 2.303656
v 9.298897 0.539 2.303656
v 9.258458 0.4793146 2.251701
v 9.258458 0.539 2.251701
v 9.203341 0.4793146 2.215691
v 9.203341 0.539 2.215691
v 9.139518 0.4793146 2.199528
v 9.139518 0.539 2.199528
v 9.073905 0.4793146 2.204965
v 9.073905 0.539 2.204965
v 9.013613 0.4793146 2.231412
v 9.013613 0.539 2.231412
v 8.965174 0.4793146 2.276003
v 8.965174 0.539 2.276003
v 8.933839 0.4793146 2.333905
v 8.933839 0.539 2.333905
v 9.123002 0.4793146 2.398845
v 9.123002 0.539 2.398845

vt 0.7747173 0.04674806
vt 0.7747173 0.1219864
vt 0.8577112 0.04674806
vt 0.8577112 0.1219864
vt 0.8231832 0.04674806
vt 0.8231832 0.1219864
vt 0.9061772 0.04674806
vt 0.9061772 0.1219864
vt 0.8321304 0.04674806
vt 0.8321304 0.1219864
vt 0.9151243 0.04674806
vt 0.9151243 0.1219864
vt 0.8005892 0.04674806
vt 0.8005892 0.1219864
vt 0.8835831 0.04674806
vt 0.8835831 0.1219864
vt 0.7319776 0.04674806
vt 0.7319776 0.1219864
vt 0.8149715 0.04674806
vt 0.8149715 0.1219864
vt 0.6337308 0.04674806
vt 0.6337308 0.1219864
vt 0.7167247 0.04674806
vt 0.7167247 0.1219864
vt 0.5164957 0.04674806
vt 0.5164957 0.1219864
vt 0.5994896 0.04674806
vt 0.5994896 0.1219864
vt 0.3929756 0.04674806
vt 0.3929756 0.1219864
vt 0.4759694 0.04674806
vt 0.4759694 0.1219864
vt 0.2765571 0.04674806
vt 0.2765571 0.1219864
vt 0.359551 0.04674806
vt 0.359551 0.1219864
vt 0.1798547 0.04674806
vt 0.1798547 0.1219864
vt 0.2628486 0.04674806
vt 0.2628486 0.1219864
vt 0.1133483 0.04674806
vt 0.1133483 0.1219864
vt 0.1963422 0.04674806
vt 0.1963422 0.1219864
vt 0.08424498 0.04674806
vt 0.08424498 0.1219864
vt 0.1672389 0.04674806
vt 0.1672389 0.1219864
vt 0.09569811 0.04674806
vt 0.09569811 0.1219864
vt 0.1786921 0.04674806
vt 0.1786921 0.1219864
vt 0.1464669 0.04674806
vt 0.1464669 0.1219864
vt 0.2294608 0.04674806
vt 0.2294608 0.1219864
vt 0.2310496 0.04674806
vt 0.2310496 0.1219864
vt 0.3140436 0.04674806
vt 0.3140436 0.1219864
vt 0.3402805 0.04674806
vt 0.3402805 0.1219864
vt 0.4232743 0.04674806
vt 0.4232743 0.1219864
vt 0.4623225 0.04674806
vt 0.4623225 0.1219864
vt 0.5453163 0.04674806
vt 0.5453163 0.1219864
vt 0.5839506 0.04674806
vt 0.5839506 0.1219864
vt 0.6669445 0.04674806
vt 0.6669445 0.1219864
vt 0.6919847 0.04674806
vt 0.6919847 0.1219864
vt 0.4992063 0.251255
vt 0.7513224 0.251255
vt 0.5128667 0.3331169
vt 0.5007937 0.251255
vt 0.2486776 0.251255
vt 0.4871333 0.3331169
vt 0.5523674 0.406108
vt 0.4476326 0.406108
vt 0.613428 0.4623182
vt 0.386572 0.4623182
vt 0.6894316 0.4956565
vt 0.3105684 0.4956565
vt 0.772142 0.5025101
vt 0.227858 0.5025101
vt 0.8525963 0.4821362
vt 0.1474037 0.4821362
vt 0.922076 0.4367429
vt 0.07792398 0.4367429
vt 0.9730519 0.371249
vt 0.0269481 0.371249
vt 1 0.292752
vt 0 0.292752
vt 1 0.2097581
vt 0 0.2097581
vt 0.9730519 0.131261
vt 0.0269481 0.131261
vt 0.922076 0.06576716
vt 0.07792398 0.06576716
vt 0.8525963 0.02037377
vt 0.1474037 0.02037377
vt 0.772142 0
vt 0.227858 0
vt 0.6894315 0.00685359
vt 0.3105685 0.00685359
vt 0.613428 0.04019184
vt 0.386572 0.04019184
vt 0.5523674 0.09640203
vt 0.4476326 0.09640203
vt 0.5128667 0.169393
vt 0.4871333 0.169393

vn -1 0 3.776801E-08
vn -0.9458172 0 0.3246994
vn -0.7891406 0 0.6142125
vn -0.5469483 0 0.8371664
vn -0.2454854 0 0.9694003
vn 0.08257952 0 0.9965845
vn 0.4016954 0 0.9157733
vn 0.6772816 0 0.7357239
vn 0.8794737 0 0.4759474
vn 0.9863613 0 0.1645948
vn 0.9863613 0 -0.1645947
vn 0.8794737 0 -0.4759474
vn 0.6772816 0 -0.7357239
vn 0.4016953 0 -0.9157733
vn 0.0825793 0 -0.9965845
vn -0.2454856 0 -0.9694002
vn -0.5469481 0 -0.8371665
vn -0.7891404 0 -0.6142128
vn -0.9458172 0 -0.3246995
vn 0 -1 0
vn 0 1 0

usemtl DefaultHDMaterial
f 1/75/20 39/76/20 3/77/20
f 3/77/20 39/76/20 5/81/20
f 5/81/20 39/76/20 7/83/20
f 7/83/20 39/76/20 9/85/20
f 9/85/20 39/76/20 11/87/20
f 11/87/20 39/76/20 13/89/20
f 13/89/20 39/76/20 15/91/20
f 15/91/20 39/76/20 17/93/20
f 17/93/20 39/76/20 19/95/20
f 19/95/20 39/76/20 21/97/20
f 21/97/20 39/76/20 23/99/20
f 23/99/20 39/76/20 25/101/20
f 25/101/20 39/76/20 27/103/20
f 27/103/20 39/76/20 29/105/20
f 29/105/20 39/76/20 31/107/20
f 31/107/20 39/76/20 33/109/20
f 33/109/20 39/76/20 35/111/20
f 35/111/20 39/76/20 37/113/20
f 37/113/20 39/76/20 1/75/20
f 4/80/21 40/79/21 2/78/21
f 6/82/21 40/79/21 4/80/21
f 8/84/21 40/79/21 6/82/21
f 10/86/21 40/79/21 8/84/21
f 12/88/21 40/79/21 10/86/21
f 14/90/21 40/79/21 12/88/21
f 16/92/21 40/79/21 14/90/21
f 18/94/21 40/79/21 16/92/21
f 20/96/21 40/79/21 18/94/21
f 22/98/21 40/79/21 20/96/21
f 24/100/21 40/79/21 22/98/21
f 26/102/21 40/79/21 24/100/21
f 28/104/21 40/79/21 26/102/21
f 30/106/21 40/79/21 28/104/21
f 32/108/21 40/79/21 30/106/21
f 34/110/21 40/79/21 32/108/21
f 36/112/21 40/79/21 34/110/21
f 38/114/21 40/79/21 36/112/21
f 2/78/21 40/79/21 38/114/21
f 4/4/2 2/2/1 1/1/1
f 1/1/1 3/3/2 4/4/2
f 6/8/3 4/6/2 3/5/2
f 3/5/2 5/7/3 6/8/3
f 8/12/4 6/10/3 5/9/3
f 5/9/3 7/11/4 8/12/4
f 10/16/5 8/14/4 7/13/4
f 7/13/4 9/15/5 10/16/5
f 12/20/6 10/18/5 9/17/5
f 9/17/5 11/19/6 12/20/6
f 14/24/7 12/22/6 11/21/6
f 11/21/6 13/23/7 14/24/7
f 16/28/8 14/26/7 13/25/7
f 13/25/7 15/27/8 16/28/8
f 18/32/9 16/30/8 15/29/8
f 15/29/8 17/31/9 18/32/9
f 20/36/10 18/34/9 17/33/9
f 17/33/9 19/35/10 20/36/10
f 22/40/11 20/38/10 19/37/10
f 19/37/10 21/39/11 22/40/11
f 24/44/12 22/42/11 21/41/11
f 21/41/11 23/43/12 24/44/12
f 26/48/13 24/46/12 23/45/12
f 23/45/12 25/47/13 26/48/13
f 28/52/14 26/50/13 25/49/13
f 25/49/13 27/51/14 28/52/14
f 30/56/15 28/54/14 27/53/14
f 27/53/14 29/55/15 30/56/15
f 32/60/16 30/58/15 29/57/15
f 29/57/15 31/59/16 32/60/16
f 34/64/17 32/62/16 31/61/16
f 31/61/16 33/63/17 34/64/17
f 36/68/18 34/66/17 33/65/17
f 33/65/17 35/67/18 36/68/18
f 38/72/19 36/70/18 35/69/18
f 35/69/18 37/71/19 38/72/19
f 2/2/1 38/74/19 37/73/19
f 37/73/19 1/1/1 2/2/1

g Pipe
v 9.077415 0.539 2.487491
v 9.027415 0.539 2.400888
v 9.077415 0.6188488 2.487491
v 9.027415 0.6188488 2.400888
v 9.037416 0.539 2.400888
v 9.082416 0.539 2.478831
v 9.037416 0.6188488 2.400888
v 9.082416 0.6188488 2.478831
v 9.177416 0.539 2.487491
v 9.177416 0.6188488 2.487491
v 9.172416 0.539 2.478831
v 9.172416 0.6188488 2.478831
v 9.227416 0.539 2.400888
v 9.227416 0.6188488 2.400888
v 9.217416 0.539 2.400888
v 9.217416 0.6188488 2.400888
v 9.177416 0.539 2.314286
v 9.177416 0.6188488 2.314286
v 9.172416 0.539 2.322946
v 9.172416 0.6188488 2.322946
v 9.077415 0.539 2.314286
v 9.077415 0.6188488 2.314286
v 9.082416 0.539 2.322946
v 9.082416 0.6188488 2.322946

vt 0.9132937 0.06703614
vt 0.6181622 0.06703614
vt 0.9132937 0.3026951
vt 0.6181622 0.3026951
vt 0.3670813 0.06703614
vt 0.101463 0.06703614
vt 0.3670813 0.3026951
vt 0.101463 0.3026951
vt 0.8524343 0.06703614
vt 0.5573029 0.06703614
vt 0.8524343 0.3026951
vt 0.5573029 0.3026951
vt 0.4279406 0.06703614
vt 0.1623223 0.06703614
vt 0.4279406 0.3026951
vt 0.1623223 0.3026951
vt 0.5867063 0.06703614
vt 0.2915749 0.06703614
vt 0.5867063 0.3026951
vt 0.2915749 0.3026951
vt 0.6936684 0.06703614
vt 0.4280502 0.06703614
vt 0.6936684 0.3026951
vt 0.4280502 0.3026951
vt 0.3818378 0.06703614
vt 0.08670643 0.06703614
vt 0.3818378 0.3026951
vt 0.08670643 0.3026951
vt 0.8985371 0.06703614
vt 0.6329188 0.06703614
vt 0.8985371 0.3026951
vt 0.6329188 0.3026951
vt 0.4426971 0.06703614
vt 0.1475657 0.06703614
vt 0.4426971 0.3026951
vt 0.1475657 0.3026951
vt 0.8376777 0.06703614
vt 0.5720595 0.06703614
vt 0.8376777 0.3026951
vt 0.5720595 0.3026951
vt 0.708425 0.06703614
vt 0.4132936 0.06703614
vt 0.708425 0.3026951
vt 0.4132936 0.3026951
vt 0.5719499 0.06703614
vt 0.3063315 0.06703614
vt 0.5719499 0.3026951
vt 0.3063315 0.3026951
vt 0.4097371 0.2555913
vt 0.5573029 0.5111827
vt 0.4392503 0.2555913
vt 0.5720595 0.4856235
vt 0.4426971 0.5111827
vt 0.5902628 0.2555913
vt 0.4279406 0.4856235
vt 0.5607497 0.2555913
vt 0.8524343 0.5111827
vt 0.8376778 0.4856235
vt 0.1475657 0.5111827
vt 0.1623223 0.4856235
vt 1 0.2555913
vt 0.9704869 0.2555913
vt 0 0.2555913
vt 0.02951312 0.2555913
vt 0.8524342 0
vt 0.8376777 0.02555914
vt 0.1475657 0
vt 0.1623223 0.02555914
vt 0.5573029 0
vt 0.5720595 0.02555914
vt 0.4426971 0
vt 0.4279405 0.02555914

vn -0.5 0 0.8660254
vn -1 0 -3.441276E-08
vn 1 0 3.441276E-08
vn 0.5 0 -0.8660254
vn 0.5000001 0 0.8660253
vn -0.5000001 0 -0.8660254
vn 0.5 0 0.8660254
vn 0 -1 0
vn 0 1 0

usemtl DefaultHDMaterial
f 43/117/22 44/118/23 42/116/23 41/115/22
f 47/121/24 48/122/25 46/120/25 45/119/24
f 50/125/26 43/126/22 41/124/22 49/123/26
f 48/129/25 52/130/27 51/128/27 46/127/25
f 54/133/24 50/134/26 49/132/26 53/131/24
f 52/137/27 56/138/23 55/136/23 51/135/27
f 58/141/25 54/142/24 53/140/24 57/139/25
f 56/145/23 60/146/22 59/144/22 55/143/23
f 62/149/27 58/150/25 57/148/25 61/147/27
f 60/153/22 64/154/28 63/152/28 59/151/22
f 44/157/23 62/158/27 61/156/27 42/155/23
f 64/161/28 47/162/24 45/160/24 63/159/28
f 45/165/29 46/166/29 41/164/29 42/163/29
f 48/169/30 47/170/30 44/168/30 43/167/30
f 46/166/29 51/172/29 49/171/29 41/164/29
f 52/174/30 48/169/30 43/167/30 50/173/30
f 51/172/29 55/176/29 53/175/29 49/171/29
f 56/178/30 52/174/30 50/173/30 54/177/30
f 55/176/29 59/180/29 57/179/29 53/175/29
f 60/182/30 56/178/30 54/177/30 58/181/30
f 59/180/29 63/184/29 61/183/29 57/179/29
f 64/186/30 60/182/30 58/181/30 62/185/30
f 63/184/29 45/165/29 42/163/29 61/183/29
f 47/170/30 64/186/30 62/185/30 44/168/30

g Cylinder (1)
v 9.172163 0.4793146 2.402761
v 9.172163 0.3015808 2.402761
v 9.169454 0.4793146 2.418996
v 9.169454 0.3015808 2.418996
v 9.16162 0.4793146 2.433472
v 9.16162 0.3015808 2.433472
v 9.14951 0.4793146 2.44462
v 9.14951 0.3015808 2.44462
v 9.134438 0.4793146 2.451231
v 9.134438 0.3015808 2.451231
v 9.118033 0.4793146 2.452591
v 9.118033 0.3015808 2.452591
v 9.102078 0.4793146 2.44855
v 9.102078 0.3015808 2.44855
v 9.088299 0.4793146 2.439548
v 9.088299 0.3015808 2.439548
v 9.078189 0.4793146 2.426559
v 9.078189 0.3015808 2.426559
v 9.072845 0.4793146 2.410991
v 9.072845 0.3015808 2.410991
v 9.072845 0.4793146 2.394532
v 9.072845 0.3015808 2.394532
v 9.078189 0.4793146 2.378964
v 9.078189 0.3015808 2.378964
v 9.088299 0.4793146 2.365975
v 9.088299 0.3015808 2.365975
v 9.102078 0.4793146 2.356973
v 9.102078 0.3015808 2.356973
v 9.118033 0.4793146 2.352932
v 9.118033 0.3015808 2.352932
v 9.134438 0.4793146 2.354291
v 9.134438 0.3015808 2.354291
v 9.14951 0.4793146 2.360903
v 9.14951 0.3015808 2.360903
v 9.16162 0.4793146 2.372051
v 9.16162 0.3015808 2.372051
v 9.169454 0.4793146 2.386527
v 9.169454 0.3015808 2.386527
v 9.122163 0.4793146 2.402761
v 9.122163 0.3015808 2.402761

vt 0.7693292 0
vt 0.7693292 0.7458051
vt 0.8383963 0
vt 0.8383963 0.7458051
vt 0.8328705 0
vt 0.8328705 0.7458051
vt 0.9019375 0
vt 0.9019375 0.7458051
vt 0.8565979 0
vt 0.8565979 0.7458051
vt 0.925665 0
vt 0.925665 0.7458051
vt 0.83794 0
vt 0.83794 0.7458051
vt 0.9070071 0
vt 0.9070071 0.7458051
vt 0.7789189 0
vt 0.7789189 0.7458051
vt 0.8479859 0
vt 0.8479859 0.7458051
vt 0.6859303 0
vt 0.6859303 0.7458051
vt 0.7549974 0
vt 0.7549974 0.7458051
vt 0.5690512 0
vt 0.5690512 0.7458051
vt 0.6381183 0
vt 0.6381183 0.7458051
vt 0.4409467 0
vt 0.4409467 0.7458051
vt 0.5100138 0
vt 0.5100138 0.7458051
vt 0.3155 0
vt 0.3155 0.7458051
vt 0.3845671 0
vt 0.3845671 0.7458051
vt 0.2063038 0
vt 0.2063038 0.7458051
vt 0.2753709 0
vt 0.2753709 0.7458051
vt 0.1251921 0
vt 0.1251921 0.7458051
vt 0.1942592 0
vt 0.1942592 0.7458051
vt 0.08095462 0
vt 0.08095462 0.7458051
vt 0.1500217 0
vt 0.1500217 0.7458051
vt 0.07838468 0
vt 0.07838468 0.7458051
vt 0.1474518 0
vt 0.1474518 0.7458051
vt 0.1177612 0
vt 0.1177612 0.7458051
vt 0.1868283 0
vt 0.1868283 0.7458051
vt 0.194817 0
vt 0.194817 0.7458051
vt 0.2638841 0
vt 0.2638841 0.7458051
vt 0.3012019 0
vt 0.3012019 0.7458051
vt 0.3702689 0
vt 0.3702689 0.7458051
vt 0.4253872 0
vt 0.4253872 0.7458051
vt 0.4944543 0
vt 0.4944543 0.7458051
vt 0.5539159 0
vt 0.5539159 0.7458051
vt 0.6229829 0
vt 0.6229829 0.7458051
vt 0.6728597 0
vt 0.6728597 0.7458051
vt 0.7419268 0
vt 0.7419268 0.7458051
vt 0.5832422 0.2591625
vt 0.7930519 0.2591625
vt 0.5946103 0.3272876
vt 0.4167578 0.2591625
vt 0.2069481 0.2591625
vt 0.4053897 0.3272876
vt 0.6274826 0.3880303
vt 0.3725174 0.3880303
vt 0.6782969 0.4348081
vt 0.3217031 0.4348081
vt 0.7415467 0.462552
vt 0.2584533 0.462552
vt 0.8103778 0.4682555
vt 0.1896222 0.4682555
vt 0.8773315 0.4513006
vt 0.1226685 0.4513006
vt 0.9351521 0.4135245
vt 0.0648479 0.4135245
vt 0.977574 0.3590209
vt 0.02242606 0.3590209
vt 1 0.293696
vt 0 0.293696
vt 1 0.224629
vt 0 0.224629
vt 0.977574 0.1593042
vt 0.02242606 0.1593042
vt 0.9351521 0.1048006
vt 0.0648479 0.1048006
vt 0.8773314 0.06702443
vt 0.1226686 0.06702443
vt 0.8103778 0.05006949
vt 0.1896221 0.05006949
vt 0.7415466 0.05577301
vt 0.2584534 0.05577301
vt 0.6782969 0.08351692
vt 0.3217031 0.08351692
vt 0.6274827 0.1302947
vt 0.3725173 0.1302947
vt 0.5946103 0.1910374
vt 0.4053897 0.1910374

vn 1 0 3.021441E-08
vn 0.9458172 0 0.3246994
vn 0.7891406 0 0.6142126
vn 0.5469483 0 0.8371664
vn 0.2454855 0 0.9694003
vn -0.08257949 0 0.9965845
vn -0.4016954 0 0.9157733
vn -0.6772817 0 0.7357239
vn -0.8794737 0 0.4759474
vn -0.9863613 0 0.1645948
vn -0.9863613 0 -0.1645947
vn -0.8794737 0 -0.4759474
vn -0.6772817 0 -0.7357239
vn -0.4016954 0 -0.9157733
vn -0.0825793 0 -0.9965845
vn 0.2454855 0 -0.9694002
vn 0.5469481 0 -0.8371665
vn 0.7891404 0 -0.6142128
vn 0.9458172 0 -0.3246996
vn 0 1 0
vn 0 -1 0

usemtl DefaultHDMaterial
f 65/263/50 103/264/50 67/265/50
f 67/265/50 103/264/50 69/269/50
f 69/269/50 103/264/50 71/271/50
f 71/271/50 103/264/50 73/273/50
f 73/273/50 103/264/50 75/275/50
f 75/275/50 103/264/50 77/277/50
f 77/277/50 103/264/50 79/279/50
f 79/279/50 103/264/50 81/281/50
f 81/281/50 103/264/50 83/283/50
f 83/283/50 103/264/50 85/285/50
f 85/285/50 103/264/50 87/287/50
f 87/287/50 103/264/50 89/289/50
f 89/289/50 103/264/50 91/291/50
f 91/291/50 103/264/50 93/293/50
f 93/293/50 103/264/50 95/295/50
f 95/295/50 103/264/50 97/297/50
f 97/297/50 103/264/50 99/299/50
f 99/299/50 103/264/50 101/301/50
f 101/301/50 103/264/50 65/263/50
f 68/268/51 104/267/51 66/266/51
f 70/270/51 104/267/51 68/268/51
f 72/272/51 104/267/51 70/270/51
f 74/274/51 104/267/51 72/272/51
f 76/276/51 104/267/51 74/274/51
f 78/278/51 104/267/51 76/276/51
f 80/280/51 104/267/51 78/278/51
f 82/282/51 104/267/51 80/280/51
f 84/284/51 104/267/51 82/282/51
f 86/286/51 104/267/51 84/284/51
f 88/288/51 104/267/51 86/286/51
f 90/290/51 104/267/51 88/288/51
f 92/292/51 104/267/51 90/290/51
f 94/294/51 104/267/51 92/292/51
f 96/296/51 104/267/51 94/294/51
f 98/298/51 104/267/51 96/296/51
f 100/300/51 104/267/51 98/298/51
f 102/302/51 104/267/51 100/300/51
f 66/266/51 104/267/51 102/302/51
f 68/190/32 66/188/31 65/187/31
f 65/187/31 67/189/32 68/190/32
f 70/194/33 68/192/32 67/191/32
f 67/191/32 69/193/33 70/194/33
f 72/198/34 70/196/33 69/195/33
f 69/195/33 71/197/34 72/198/34
f 74/202/35 72/200/34 71/199/34
f 71/199/34 73/201/35 74/202/35
f 76/206/36 74/204/35 73/203/35
f 73/203/35 75/205/36 76/206/36
f 78/210/37 76/208/36 75/207/36
f 75/207/36 77/209/37 78/210/37
f 80/214/38 78/212/37 77/211/37
f 77/211/37 79/213/38 80/214/38
f 82/218/39 80/216/38 79/215/38
f 79/215/38 81/217/39 82/218/39
f 84/222/40 82/220/39 81/219/39
f 81/219/39 83/221/40 84/222/40
f 86/226/41 84/224/40 83/223/40
f 83/223/40 85/225/41 86/226/41
f 88/230/42 86/228/41 85/227/41
f 85/227/41 87/229/42 88/230/42
f 90/234/43 88/232/42 87/231/42
f 87/231/42 89/233/43 90/234/43
f 92/238/44 90/236/43 89/235/43
f 89/235/43 91/237/44 92/238/44
f 94/242/45 92/240/44 91/239/44
f 91/239/44 93/241/45 94/242/45
f 96/246/46 94/244/45 93/243/45
f 93/243/45 95/245/46 96/246/46
f 98/250/47 96/248/46 95/247/46
f 95/247/46 97/249/47 98/250/47
f 100/254/48 98/252/47 97/251/47
f 97/251/47 99/253/48 100/254/48
f 102/258/49 100/256/48 99/255/48
f 99/255/48 101/257/49 102/258/49
f 66/262/31 102/260/49 101/259/49
f 101/259/49 65/261/31 66/262/31

