# ProBuilder 5.0.6
# https://unity3d.com/unity/features/worldbuilding/probuilder
# 2023/3/16 1:21:30

mtllib ./Cube_(2).mtl
o Cube (2)

g Cube (2)
v -0.1008661 0.1383215 1.058569
v -0.2873061 0.1383215 1.058569
v -0.1008661 7.450581E-09 1.058569
v -0.2873061 7.450581E-09 1.058569
v -0.2873061 0.1383215 1.402938
v -0.2873061 7.450581E-09 1.402938
v -0.1008661 0.1383215 1.402938
v -0.1008661 7.450581E-09 1.402938

vt 0.1494656 0.3097404
vt 0.2597692 0.3097404
vt 0.1494656 0.2279052
vt 0.2597692 0.2279052
vt 0.7962605 0.2886381
vt 0.9999999 0.2886381
vt 0.7962605 0.2068029
vt 0.9999999 0.2068029
vt -5.215406E-08 0.3012995
vt 0.1103035 0.3012995
vt -5.215406E-08 0.2194643
vt 0.1103035 0.2194643
vt 0.3515625 0.7448316
vt 0.6484375 0.7448316
vt 0.3515625 0.6255869
vt 0.6484375 0.6255869
vt 0.325047 0.3996124
vt 0.2163483 0.3996124
vt 0.325047 0.6003876
vt 0.2163483 0.6003876
vt 0.1168852 0.8469686
vt 0.2275839 0.8469686
vt 0.1168852 0.6424991
vt 0.2275839 0.6424991

vn 0 0 -1
vn -1 0 0
vn 0 0 1
vn 1 0 0
vn 0 -1 0
vn 0 1 0

usemtl DefaultHDMaterial
f 3/3/1 4/4/1 2/2/1 1/1/1
f 4/7/2 6/8/2 5/6/2 2/5/2
f 6/11/3 8/12/3 7/10/3 5/9/3
f 8/15/4 3/16/4 1/14/4 7/13/4
f 8/19/5 6/20/5 4/18/5 3/17/5
f 1/23/6 2/24/6 5/22/6 7/21/6

