# ProBuilder 5.0.6
# https://unity3d.com/unity/features/worldbuilding/probuilder
# 2023/3/16 1:27:17

mtllib ./sword2.mtl
o sword2

g Cube (2)
v 7.700134 0.3934312 4.201322
v 7.513694 0.3934312 4.201322
v 7.700134 0.3934312 4.063
v 7.513694 0.3934312 4.063
v 7.513694 0.04906171 4.201322
v 7.513694 0.04906173 4.063
v 7.700134 0.04906171 4.201322
v 7.700134 0.04906173 4.063

vt 0.1494657 0.1029375
vt 0.2597693 0.1029375
vt 0.1494657 0.02110234
vt 0.2597693 0.02110234
vt 0.7962605 0.08183524
vt 1 0.08183524
vt 0.7962605 0
vt 1 0
vt 0 0.09449664
vt 0.1103036 0.09449664
vt 0 0.01266143
vt 0.1103036 0.01266143
vt 0.388187 0.6723183
vt 0.685062 0.6723183
vt 0.388187 0.5530736
vt 0.685062 0.5530736
vt 0.3250471 0.1928096
vt 0.2163484 0.1928096
vt 0.3250471 0.3935847
vt 0.2163484 0.3935847
vt 0.1168852 0.6401657
vt 0.227584 0.6401657
vt 0.1168852 0.4356963
vt 0.227584 0.4356963

vn 0 1 1.192093E-07
vn -1 0 0
vn 0 -1 -1.192093E-07
vn 1 0 0
vn 0 1.192093E-07 -1
vn 0 -1.192093E-07 1

usemtl DefaultHDMaterial
f 3/3/1 4/4/1 2/2/1 1/1/1
f 4/7/2 6/8/2 5/6/2 2/5/2
f 6/11/3 8/12/3 7/10/3 5/9/3
f 8/15/4 3/16/4 1/14/4 7/13/4
f 8/19/5 6/20/5 4/18/5 3/17/5
f 1/23/6 2/24/6 5/22/6 7/21/6

g Cube (1)
v 7.863621 0.5254309 4.201322
v 7.35851 0.5254309 4.201322
v 7.863621 0.5254309 4.063
v 7.35851 0.5254309 4.063
v 7.35851 0.394211 4.201322
v 7.35851 0.394211 4.063
v 7.863621 0.394211 4.201322
v 7.863621 0.394211 4.063

vt 0.4439744 0.06452861
vt 0.6636639 0.06452861
vt 0.4439744 0
vt 0.6636639 0
vt 0.8042258 0.4445448
vt 0.8612977 0.4445448
vt 0.8042258 0.3800162
vt 0.8612977 0.3800162
vt 0.2970241 0.1475206
vt 0.5167136 0.1475206
vt 0.2970241 0.08299204
vt 0.5167136 0.08299204
vt 0.01091358 0.3484488
vt 0.06798545 0.3484488
vt 0.01091358 0.2839201
vt 0.06798545 0.2839201
vt 0.2196895 0.05855046
vt 0 0.05855046
vt 0.2196895 0.1156223
vt 0 0.1156223
vt 0.7803106 0.1025183
vt 1 0.1025183
vt 0.7803106 0.04544646
vt 1 0.04544646

vn 0 1 1.192093E-07
vn -1 0 0
vn 0 -1 -1.192093E-07
vn 1 0 0
vn 0 1.192093E-07 -1
vn 0 -1.192093E-07 1

usemtl DefaultHDMaterial
f 11/27/7 12/28/7 10/26/7 9/25/7
f 12/31/8 14/32/8 13/30/8 10/29/8
f 14/35/9 16/36/9 15/34/9 13/33/9
f 16/39/10 11/40/10 9/38/10 15/37/10
f 16/43/11 14/44/11 12/42/11 11/41/11
f 9/47/12 10/48/12 13/46/12 15/45/12

g Cube
v 7.473134 0.9115804 4.129908
v 7.606249 0.948118 4.154477
v 7.606249 0.5278051 4.16234
v 7.475223 0.5278049 4.154525
v 7.736541 0.9072245 4.129323
v 7.736832 0.5278049 4.154525
v 7.474823 0.9152573 4.116605
v 7.477722 0.5278047 4.091754
v 7.606249 0.527805 4.078248
v 7.606249 0.948118 4.093376
v 7.727188 0.5278049 4.091754
v 7.734632 0.9077223 4.117636
v 7.602583 1.368431 4.12498
v 7.606249 1.368431 4.124991
v 7.606249 1.158275 4.144813
v 7.464817 1.158275 4.125929
v 7.609598 1.368431 4.125047
v 7.731432 1.158275 4.128931
v 7.602583 1.368431 4.121305
v 7.467861 1.158275 4.119091
v 7.606249 1.158275 4.094505
v 7.606249 1.368431 4.1215
v 7.729055 1.158275 4.118159
v 7.609598 1.368431 4.121595
v 7.457077 0.9120935 4.123138
v 7.455801 0.5278045 4.123138
v 7.755248 0.5278045 4.123138
v 7.748869 0.90747 4.12314
v 7.456144 1.158275 4.12314
v 7.602583 1.368431 4.123141
v 7.74129 1.158275 4.12314
v 7.609598 1.368431 4.123141
v 7.606249 0.5278051 4.123141
v 7.606249 1.368431 4.123141

vt 0.5746457 0.4067012
vt 0.5389346 0.3971215
vt 0.5389283 0.5098273
vt 0.574066 0.5097623
vt 0.5040199 0.4078565
vt 0.503922 0.5097555
vt 0.4141557 0.4034941
vt 0.4148959 0.507594
vt 0.4493367 0.507844
vt 0.4493593 0.3951235
vt 0.4817833 0.5076183
vt 0.4838178 0.4055173
vt 0.5399408 0.2842263
vt 0.538958 0.2842263
vt 0.5389423 0.3407184
vt 0.5768788 0.3405567
vt 0.5380599 0.2842267
vt 0.5053902 0.340576
vt 0.4484182 0.2821776
vt 0.4122927 0.3384306
vt 0.449361 0.3388764
vt 0.4494013 0.2821745
vt 0.4823235 0.3384725
vt 0.4502994 0.2821732
vt 0.9978889 0.01175577
vt 0.9012145 0.01847986
vt 0.9037153 0.02023832
vt 1 0.02017956
vt 0.9022973 0.02204693
vt 0.9981295 0.02858741
vt 0.00174765 0.03268198
vt 0 0.03559758
vt 0.0994115 0.03630259
vt 0.100364 0.03543706
vt 0.00114703 0.04889353
vt 0.1001152 0.03845568
vt 0.841074 0.01918663
vt 0.8422024 0.02027718
vt 0.8413672 0.02102151
vt 0.7755111 0.01975859
vt 0.7755111 0.02025102
vt 0.7755111 0.01652366
vt 0.1652917 0.03412038
vt 0.1660537 0.03331238
vt 0.1659056 0.03606426
vt 0.2283007 0.03752042
vt 0.2283007 0.03711133
vt 0.2283007 0.038025
vt 0.4817402 0.01192973
vt 0.4493133 0.008308176
vt 0.4493133 0.02034522
vt 0.4892638 0.02034461
vt 0.4493133 0.02663495
vt 0.484326 0.02876026
vt 0.4148518 0.0119296
vt 0.4089742 0.02034461
vt 0.4141817 0.02876026
vt 0.4941604 0

vn -0.1228769 0.04097736 0.98926
vn -0.186343 0.0183766 0.982313
vn -0.05941084 0.06357811 0.996207
vn 0.1950686 0.01834489 0.9806182
vn 0.1273351 0.04227484 0.9883213
vn 0.05960168 0.06620479 0.9960245
vn -0.1434058 0.04912314 -0.9875621
vn -0.1043039 0.06288114 -0.9925557
vn -0.1825077 0.03536515 -0.9825683
vn 0.1535126 0.05032862 -0.985805
vn 0.1107562 0.06538758 -0.9916945
vn 0.196269 0.03526966 -0.9799157
vn -0.003071258 0.006531288 0.9999741
vn -0.06741875 0.04980705 0.9934375
vn -0.1317662 0.09308282 0.9869009
vn -0.01667427 0.09388851 0.9954432
vn 0.05433152 0.09240401 0.9916914
vn 0.1253373 0.0909195 0.9879395
vn -0.132332 0.01152386 0.9911386
vn -0.1627975 0.02829608 0.985625
vn -0.1932631 0.04506829 0.9801115
vn 0.1257278 0.0455698 0.9910178
vn 0.1584592 0.02549666 0.9862779
vn 0.1911906 0.005423525 0.981538
vn 0.05340798 -0.0237222 -0.9982911
vn -0.06006408 0.05087603 -0.9875464
vn -0.1735362 0.1254743 -0.9768018
vn 0.1078932 0.1249945 -0.9829993
vn 0.1877112 0.1226318 -0.974539
vn 0.02807514 0.1273571 -0.9914597
vn -0.1749163 0.00505999 -0.9845704
vn -0.1751225 0.005174876 -0.9845332
vn -0.1753286 0.005289763 -0.9844959
vn 0.1883523 0.005751472 -0.9820844
vn 0.1875684 0.006226931 -0.9822319
vn 0.1891361 0.005276013 -0.9819368
vn -0.5868682 0.02997474 -0.7530683
vn -0.3539132 0.05722729 -0.933526
vn -0.819823 0.002722192 -0.5726106
vn -0.3884606 0.001289866 0.9214646
vn -0.6192336 0.01520052 0.7237159
vn -0.8500065 0.02911118 0.5259673
vn 0.5531624 0.0344355 -0.7986868
vn 0.7454243 0.01252607 -0.6664727
vn 0.3609004 0.05634492 -0.9309009
vn 0.6550756 0.0208893 0.6998432
vn 0.8619913 0.03425425 0.5057645
vn 0.4481598 0.00752435 0.893922
vn -0.3359901 -0.0004962466 -0.9418132
vn -0.3266746 0.0003091483 -0.945137
vn -0.3453057 -0.001301642 -0.9384895
vn -0.3061441 -0.00116784 0.9519846
vn -0.3472958 0.0002988775 0.9367269
vn -0.3884475 0.001765595 0.9214693
vn -0.5801963 0.3808206 -0.4607811
vn -0.8418663 0.5396862 6.43356E-08
vn -0.3185263 0.221955 -0.9215623
vn -0.8204588 0.5717057 6.815262E-08
vn -0.5601833 0.386261 0.4662962
vn -0.2999079 0.2008164 0.9325923
vn 0.3689018 0.01061434 -0.9293665
vn 0.3607516 0.01090194 -0.9325984
vn 0.377052 0.01032674 -0.9261346
vn 0.4772644 0.0129098 0.8780339
vn 0.4481001 0.01051529 0.8939217
vn 0.5064287 0.01530431 0.8621461
vn 0.3675195 0.2236644 -0.9027202
vn 0.6074468 0.3773304 -0.4513601
vn 0.847374 0.5309965 6.329971E-08
vn 0.6656049 0.4133562 0.411842
vn 0.4838358 0.295716 0.8236839
vn -2.641364E-06 -1 -2.700747E-06
vn 0 0 0

usemtl DefaultHDMaterial
f 20/52/15 19/51/13 18/50/14 17/49/13
f 19/51/17 22/54/18 21/53/17 18/50/16
f 26/58/21 25/57/19 24/56/20 23/55/19
f 26/58/24 28/60/22 27/59/23 25/57/22
f 32/64/26 31/63/27 30/62/26 29/61/25
f 31/63/29 34/66/30 33/65/29 30/62/28
f 17/49/32 18/50/33 31/63/32 32/64/31
f 18/50/35 21/53/36 34/66/35 31/63/34
f 35/67/37 38/70/38 37/69/39 36/68/38
f 38/70/42 40/72/40 39/71/41 37/69/40
f 36/68/43 37/69/44 26/58/45 23/55/44
f 37/69/48 39/71/46 28/60/47 26/58/46
f 42/76/51 41/75/49 23/74/50 24/73/49
f 20/78/54 17/77/53 41/75/52 42/76/53
f 28/82/57 44/81/55 43/80/56 27/79/55
f 44/81/60 21/84/58 22/83/59 43/80/58
f 41/75/63 45/86/61 36/85/62 23/74/61
f 17/77/66 32/87/65 45/86/64 41/75/65
f 45/86/69 46/89/67 35/88/68 36/85/67
f 32/87/72 29/90/71 46/89/70 45/86/71
f 39/92/75 47/91/73 44/81/74 28/82/73
f 47/91/78 34/93/76 21/84/77 44/81/76
f 39/92/79 40/95/80 48/94/81 47/91/80
f 48/94/81 33/96/82 34/93/83 47/91/82
f 43/100/84 49/99/84 25/98/84 27/97/84
f 22/102/84 19/101/84 49/99/84 43/100/84
f 49/99/84 42/104/84 24/103/84 25/98/84
f 19/101/84 20/105/84 42/104/84 49/99/84
f 35/106/85 46/106/85 50/106/85 38/106/85
f 46/106/85 29/106/85 30/106/85 50/106/85
f 38/106/85 50/106/85 48/106/85 40/106/85
f 50/106/85 30/106/85 33/106/85 48/106/85

